<?xml version="1.0" standalone="no"?>
<!DOCTYPE svg PUBLIC "-//W3C//DTD SVG 20010904//EN"
 "http://www.w3.org/TR/2001/REC-SVG-20010904/DTD/svg10.dtd">
<svg version="1.0" xmlns="http://www.w3.org/2000/svg"
 width="200.000000pt" height="104.000000pt" viewBox="0 0 200.000000 104.000000"
 preserveAspectRatio="xMidYMid meet">

<g transform="translate(0.000000,104.000000) scale(0.100000,-0.100000)"
fill="#000000" stroke="none">
<path d="M1210 990 l-12 -30 -144 0 -144 0 0 25 c0 20 -5 25 -25 25 -20 0 -25
-5 -25 -25 0 -24 -2 -25 -65 -25 -63 0 -65 1 -65 25 0 20 -5 25 -25 25 -20 0
-25 -5 -25 -25 l0 -25 -131 0 c-72 0 -139 -5 -150 -10 -27 -15 -24 -47 12
-124 l31 -66 119 0 119 0 0 -35 0 -35 -100 0 c-55 0 -100 -4 -100 -9 0 -13 48
-46 80 -56 13 -4 127 -8 253 -7 281 0 275 -2 342 137 l33 70 -136 5 -137 5 -3
28 -3 27 153 0 154 0 17 35 c16 33 19 35 68 35 49 0 50 1 47 28 -3 26 -6 27
-64 30 -60 3 -61 2 -74 -28z m-530 -130 l0 -30 -104 0 -104 0 -11 30 -10 30
115 0 114 0 0 -30z m180 0 l0 -31 -62 3 c-60 3 -63 4 -66 31 l-3 27 65 0 66 0
0 -30z m0 -135 l0 -35 -65 0 -65 0 0 35 0 35 65 0 65 0 0 -35z m213 3 c-18
-32 -22 -33 -91 -36 l-72 -3 0 36 0 35 91 0 91 0 -19 -32z"/>
<path d="M664 575 c-26 -27 -26 -55 1 -84 16 -17 60 -18 80 -1 23 19 19 76 -7
94 -31 22 -45 20 -74 -9z m66 -35 c0 -25 -25 -36 -45 -20 -20 16 -7 40 21 40
17 0 24 -6 24 -20z"/>
<path d="M852 584 c-22 -15 -30 -57 -14 -80 26 -39 85 -33 102 11 12 30 0 59
-30 75 -25 13 -32 13 -58 -6z m61 -37 c8 -21 -8 -39 -29 -35 -11 2 -20 13 -22
26 -3 18 1 22 21 22 14 0 27 -6 30 -13z"/>
</g>
</svg>
